HIERARCHY
ROOT Hips
{
	OFFSET 0.000000 71.427986 0.000000
	CHANNELS 6 Xposition Yposition Zposition Xrotation Yrotation Zrotation
	JOINT Pelvis
	{
		OFFSET 0.000000 0.000000 0.000000
		CHANNELS 3 Xrotation Yrotation Zrotation
		JOINT LeftUpLeg
		{
			OFFSET 6.797100 -2.508499 -1.318700
			CHANNELS 3 Xrotation Yrotation Zrotation
			JOINT LeftLeg
			{
				OFFSET 0.069008 -29.241863 0.690200
				CHANNELS 3 Xrotation Yrotation Zrotation
				JOINT LeftFoot
				{
					OFFSET -0.069008 -29.568123 -0.266800
					CHANNELS 3 Xrotation Yrotation Zrotation
					JOINT LeftToeBase
					{
						OFFSET 3.145500 -8.631000 16.059900
						CHANNELS 3 Xrotation Yrotation Zrotation
						End Site
						{
							OFFSET 0.000000 18.501587 0.000000
						}
					}
				}
			}
			JOINT Left_ShortSleeve
			{
				OFFSET 0.265923 -10.480953 1.153800
				CHANNELS 3 Xrotation Yrotation Zrotation
				End Site
				{
					OFFSET 1.725763 19.823879 0.000000
				}
			}
		}
		JOINT RightUpLeg
		{
			OFFSET -6.797100 -2.508499 -1.318700
			CHANNELS 3 Xrotation Yrotation Zrotation
			JOINT RightLeg
			{
				OFFSET -0.082453 -29.241932 0.688000
				CHANNELS 3 Xrotation Yrotation Zrotation
				JOINT RightFoot
				{
					OFFSET 0.082453 -29.568058 -0.264600
					CHANNELS 3 Xrotation Yrotation Zrotation
					JOINT RightToeBase
					{
						OFFSET -3.115300 -8.682800 16.113400
						CHANNELS 3 Xrotation Yrotation Zrotation
						End Site
						{
							OFFSET 0.000000 18.567114 0.000000
						}
					}
				}
			}
			JOINT Right_ShortSleeve
			{
				OFFSET -0.265923 -10.480953 1.153800
				CHANNELS 3 Xrotation Yrotation Zrotation
				End Site
				{
					OFFSET -1.725766 19.823910 0.000000
				}
			}
		}
	}
	JOINT Spine
	{
		OFFSET 0.000000 13.368103 0.470500
		CHANNELS 3 Xrotation Yrotation Zrotation
		JOINT Spine1
		{
			OFFSET 0.147000 13.837402 0.538800
			CHANNELS 3 Xrotation Yrotation Zrotation
			JOINT Spine2
			{
				OFFSET 0.168000 16.242897 -1.435500
				CHANNELS 3 Xrotation Yrotation Zrotation
				JOINT Neck
				{
					OFFSET 0.217200 18.631500 -1.679100
					CHANNELS 3 Xrotation Yrotation Zrotation
					JOINT Head
					{
						OFFSET 0.000000 6.599396 1.385900
						CHANNELS 3 Xrotation Yrotation Zrotation
						JOINT Hat
						{
							OFFSET -0.532200 27.220596 -10.096100
							CHANNELS 3 Xrotation Yrotation Zrotation
							End Site
							{
								OFFSET 0.000000 22.029861 0.000000
							}
						}
						JOINT HairD
						{
							OFFSET -10.777400 17.437393 -1.325900
							CHANNELS 3 Xrotation Yrotation Zrotation
							JOINT HairD1
							{
								OFFSET -3.290299 -11.051193 1.062200
								CHANNELS 3 Xrotation Yrotation Zrotation
								End Site
								{
									OFFSET 0.000000 11.579437 0.000000
								}
							}
						}
						JOINT HairB
						{
							OFFSET -10.777400 17.437393 1.467900
							CHANNELS 3 Xrotation Yrotation Zrotation
							JOINT HairB1
							{
								OFFSET -1.561200 -12.956299 3.590200
								CHANNELS 3 Xrotation Yrotation Zrotation
								End Site
								{
									OFFSET 0.000000 13.534866 0.000000
								}
							}
						}
						JOINT HairA
						{
							OFFSET 9.713100 17.437393 1.467900
							CHANNELS 3 Xrotation Yrotation Zrotation
							JOINT HairA1
							{
								OFFSET 1.561200 -12.956299 3.590200
								CHANNELS 3 Xrotation Yrotation Zrotation
								End Site
								{
									OFFSET 0.000000 13.534866 0.000000
								}
							}
						}
						JOINT HairC
						{
							OFFSET 9.713100 17.437393 -1.325900
							CHANNELS 3 Xrotation Yrotation Zrotation
							JOINT HairC1
							{
								OFFSET 3.290300 -11.051193 1.062200
								CHANNELS 3 Xrotation Yrotation Zrotation
								End Site
								{
									OFFSET 0.000000 11.579437 0.000000
								}
							}
						}
					}
				}
				JOINT LeftShoulder
				{
					OFFSET 5.101800 15.108002 -2.763700
					CHANNELS 3 Xrotation Yrotation Zrotation
					JOINT LeftArm
					{
						OFFSET 9.825497 2.506317 -1.597400
						CHANNELS 3 Xrotation Yrotation Zrotation
						JOINT LeftForeArm
						{
							OFFSET 21.966244 0.000000 0.000000
							CHANNELS 3 Xrotation Yrotation Zrotation
							JOINT LeftHand
							{
								OFFSET 33.879036 0.000000 0.000000
								CHANNELS 3 Xrotation Yrotation Zrotation
								JOINT LeftHandThumb1
								{
									OFFSET 6.715286 -2.359680 3.363841
									CHANNELS 3 Xrotation Yrotation Zrotation
									JOINT LeftHandThumb2
									{
										OFFSET 2.507072 -1.447464 1.447461
										CHANNELS 3 Xrotation Yrotation Zrotation
										JOINT LeftHandThumb3
										{
											OFFSET 2.898338 -1.673355 1.673357
											CHANNELS 3 Xrotation Yrotation Zrotation
											End Site
											{
												OFFSET -0.295959 3.727692 -0.131651
											}
										}
									}
								}
								JOINT LeftHandIndex1
								{
									OFFSET 14.190811 -0.254547 3.840278
									CHANNELS 3 Xrotation Yrotation Zrotation
									JOINT LeftHandIndex2
									{
										OFFSET 3.551727 0.000000 -0.000000
										CHANNELS 3 Xrotation Yrotation Zrotation
										JOINT LeftHandIndex3
										{
											OFFSET 2.894196 0.000000 0.000000
											CHANNELS 3 Xrotation Yrotation Zrotation
											End Site
											{
												OFFSET -1.000603 2.690872 0.366626
											}
										}
									}
								}
								JOINT LeftHandMiddle1
								{
									OFFSET 13.776489 0.000000 0.000000
									CHANNELS 3 Xrotation Yrotation Zrotation
									JOINT LeftHandMiddle2
									{
										OFFSET 3.438232 0.000000 0.000000
										CHANNELS 3 Xrotation Yrotation Zrotation
										JOINT LeftHandMiddle3
										{
											OFFSET 3.691551 0.000000 0.000000
											CHANNELS 3 Xrotation Yrotation Zrotation
											End Site
											{
												OFFSET -1.082298 3.499527 0.457670
											}
										}
									}
								}
								JOINT LeftHandRing1
								{
									OFFSET 13.966164 -0.268127 -3.067488
									CHANNELS 3 Xrotation Yrotation Zrotation
									JOINT LeftHandRing2
									{
										OFFSET 3.162567 0.000000 0.000000
										CHANNELS 3 Xrotation Yrotation Zrotation
										JOINT LeftHandRing3
										{
											OFFSET 3.324348 0.000000 0.000000
											CHANNELS 3 Xrotation Yrotation Zrotation
											End Site
											{
												OFFSET -0.861900 3.184998 0.405154
											}
										}
									}
								}
								JOINT LeftHandPinky1
								{
									OFFSET 13.131393 -0.168503 -5.746925
									CHANNELS 3 Xrotation Yrotation Zrotation
									JOINT LeftHandPinky2
									{
										OFFSET 2.849182 0.000000 0.000000
										CHANNELS 3 Xrotation Yrotation Zrotation
										JOINT LeftHandPinky3
										{
											OFFSET 2.805038 0.000000 0.000000
											CHANNELS 3 Xrotation Yrotation Zrotation
											End Site
											{
												OFFSET -0.882500 2.642609 0.325652
											}
										}
									}
								}
							}
							JOINT Left_Sleeve
							{
								OFFSET 6.592125 -0.646545 0.805568
								CHANNELS 3 Xrotation Yrotation Zrotation
								End Site
								{
									OFFSET -0.000179 20.275787 -0.000000
								}
							}
						}
					}
				}
				JOINT RightShoulder
				{
					OFFSET -5.731700 15.108002 -2.763700
					CHANNELS 3 Xrotation Yrotation Zrotation
					JOINT RightArm
					{
						OFFSET -9.825497 2.506317 -1.597400
						CHANNELS 3 Xrotation Yrotation Zrotation
						JOINT RightForeArm
						{
							OFFSET -21.966242 0.000000 0.000000
							CHANNELS 3 Xrotation Yrotation Zrotation
							JOINT RightHand
							{
								OFFSET -33.879032 0.000000 0.000000
								CHANNELS 3 Xrotation Yrotation Zrotation
								JOINT RightHandThumb1
								{
									OFFSET -6.715286 -2.359680 3.363841
									CHANNELS 3 Xrotation Yrotation Zrotation
									JOINT RightHandThumb2
									{
										OFFSET -2.507072 -1.447464 1.447461
										CHANNELS 3 Xrotation Yrotation Zrotation
										JOINT RightHandThumb3
										{
											OFFSET -2.898338 -1.673355 1.673357
											CHANNELS 3 Xrotation Yrotation Zrotation
											End Site
											{
												OFFSET 0.295959 3.727692 -0.131651
											}
										}
									}
								}
								JOINT RightHandIndex1
								{
									OFFSET -14.190811 -0.254547 3.840278
									CHANNELS 3 Xrotation Yrotation Zrotation
									JOINT RightHandIndex2
									{
										OFFSET -3.551727 0.000000 -0.000000
										CHANNELS 3 Xrotation Yrotation Zrotation
										JOINT RightHandIndex3
										{
											OFFSET -2.894196 0.000000 0.000000
											CHANNELS 3 Xrotation Yrotation Zrotation
											End Site
											{
												OFFSET 1.000603 2.690872 0.366626
											}
										}
									}
								}
								JOINT RightHandMiddle1
								{
									OFFSET -13.776489 0.000000 0.000000
									CHANNELS 3 Xrotation Yrotation Zrotation
									JOINT RightHandMiddle2
									{
										OFFSET -3.438232 0.000000 0.000000
										CHANNELS 3 Xrotation Yrotation Zrotation
										JOINT RightHandMiddle3
										{
											OFFSET -3.691551 0.000000 0.000000
											CHANNELS 3 Xrotation Yrotation Zrotation
											End Site
											{
												OFFSET 1.082298 3.499527 0.457670
											}
										}
									}
								}
								JOINT RightHandRing1
								{
									OFFSET -13.966164 -0.268127 -3.067488
									CHANNELS 3 Xrotation Yrotation Zrotation
									JOINT RightHandRing2
									{
										OFFSET -3.162567 0.000000 0.000000
										CHANNELS 3 Xrotation Yrotation Zrotation
										JOINT RightHandRing3
										{
											OFFSET -3.324348 0.000000 0.000000
											CHANNELS 3 Xrotation Yrotation Zrotation
											End Site
											{
												OFFSET 0.861900 3.184998 0.405154
											}
										}
									}
								}
								JOINT RightHandPinky1
								{
									OFFSET -13.131393 -0.168503 -5.746925
									CHANNELS 3 Xrotation Yrotation Zrotation
									JOINT RightHandPinky2
									{
										OFFSET -2.849182 0.000000 0.000000
										CHANNELS 3 Xrotation Yrotation Zrotation
										JOINT RightHandPinky3
										{
											OFFSET -2.805038 0.000000 0.000000
											CHANNELS 3 Xrotation Yrotation Zrotation
											End Site
											{
												OFFSET 0.882500 2.642609 0.325652
											}
										}
									}
								}
							}
							JOINT Right_Sleeve
							{
								OFFSET -6.592125 -0.646545 0.805568
								CHANNELS 3 Xrotation Yrotation Zrotation
								End Site
								{
									OFFSET 0.000179 20.275787 -0.000000
								}
							}
						}
					}
				}
				JOINT Bind_Right_JacketString
				{
					OFFSET -3.534800 11.969597 7.200700
					CHANNELS 3 Xrotation Yrotation Zrotation
					JOINT Bind_Right_JacketString1
					{
						OFFSET -0.319900 -6.102600 2.794100
						CHANNELS 3 Xrotation Yrotation Zrotation
						End Site
						{
							OFFSET 0.000000 6.719452 0.000000
						}
					}
				}
				JOINT Bind_Left_JacketString
				{
					OFFSET 2.904800 11.969597 7.200700
					CHANNELS 3 Xrotation Yrotation Zrotation
					JOINT Bind_Left_JacketString1
					{
						OFFSET 0.364800 -5.904503 3.186800
						CHANNELS 3 Xrotation Yrotation Zrotation
						End Site
						{
							OFFSET 0.000000 6.719513 0.000000
						}
					}
				}
				JOINT HairE
				{
					OFFSET 5.915200 17.612701 -11.592200
					CHANNELS 3 Xrotation Yrotation Zrotation
					JOINT HairE1
					{
						OFFSET 0.289200 -7.171898 -1.284500
						CHANNELS 3 Xrotation Yrotation Zrotation
						End Site
						{
							OFFSET 0.000000 7.291756 0.000000
						}
					}
				}
				JOINT HairF
				{
					OFFSET -0.864800 17.612701 -11.592200
					CHANNELS 3 Xrotation Yrotation Zrotation
					JOINT HairF1
					{
						OFFSET 0.000000 -14.087097 -2.127501
						CHANNELS 3 Xrotation Yrotation Zrotation
						End Site
						{
							OFFSET 0.000000 14.246841 0.000000
						}
					}
				}
				JOINT HairG
				{
					OFFSET -8.087700 17.612701 -11.592200
					CHANNELS 3 Xrotation Yrotation Zrotation
					JOINT HairG1
					{
						OFFSET -0.293600 -6.081398 -0.910100
						CHANNELS 3 Xrotation Yrotation Zrotation
						End Site
						{
							OFFSET 0.000000 6.156120 0.000000
						}
					}
				}
			}
		}
	}
	JOINT Pouch
	{
		OFFSET 0.000000 4.394501 10.847300
		CHANNELS 3 Xrotation Yrotation Zrotation
		End Site
		{
			OFFSET 0.000000 21.880577 0.000000
		}
	}
	JOINT Bag
	{
		OFFSET -13.229000 4.813004 -0.593300
		CHANNELS 3 Xrotation Yrotation Zrotation
		End Site
		{
			OFFSET 0.000000 21.880577 0.000000
		}
	}
	JOINT OccupyGuyFacialAnim_Joint
	{
		OFFSET 1.000000 -70.206398 -1.655000
		CHANNELS 3 Xrotation Yrotation Zrotation
		End Site
		{
			OFFSET 0.000000 21.880577 0.000000
		}
	}
}
MOTION
Frames: 4
Frame Time: 0.016667
-4.797003 67.289261 60.176235 23.413040 13.056491 -8.770958 0.000000 -0.000002 0.000000 -32.156268 -3.183507 -5.678673 33.378790 -4.373385 -3.172244 -23.921658 2.248225 11.000755 0.000000 -0.000000 0.000000 0.000000 0.000000 0.000000 -55.096028 -7.364043 -11.925328 57.238546 -7.414698 0.734513 0.608248 -5.596003 14.698465 0.000000 -0.000001 0.000000 0.000000 0.000000 -0.000001 9.543454 1.352637 -1.521275 -0.471745 1.782876 -0.358114 -0.315413 2.367535 -0.492591 -11.049977 -0.300774 0.541621 -9.090198 2.277653 -2.833868 0.000001 0.000000 0.000001 0.000001 0.000000 0.000001 0.000001 0.000000 0.000001 0.000001 0.000000 0.000001 0.000000 -0.000002 0.000000 0.000001 0.000000 0.000001 0.000000 -0.000002 0.000000 0.000001 0.000000 0.000001 0.000001 0.000000 0.000001 0.804511 -1.055563 -19.731155 11.314145 -4.215697 -51.272560 -0.000001 -61.671800 0.000003 -22.443216 13.772006 -17.933481 74.823998 -40.508052 61.030240 25.606313 5.176743 -82.902227 -0.000001 -0.000000 0.000002 5.901627 7.863778 -80.435511 5.375063 5.831715 -85.325708 -0.000000 0.000000 -0.000002 5.020603 8.216394 -91.029380 4.694991 5.736102 -78.585083 0.000001 0.000001 -0.000001 4.404961 8.246801 -91.688398 5.835748 5.851055 -89.849732 0.000001 0.000001 -0.000002 5.249094 8.404195 -99.924643 2.493731 4.794750 -54.937578 -0.000001 -0.000001 0.000001 -0.000000 0.000001 0.000000 0.318336 6.828686 17.985684 14.222246 -10.989034 46.953849 0.000004 67.377801 -0.000008 -3.079484 -19.120686 7.109507 47.809733 35.835342 -5.333802 34.631361 -33.014478 35.094618 -0.000001 0.000000 0.000001 6.363583 -7.114847 84.445119 4.420374 -4.651136 87.082474 -0.000002 -0.000001 -0.000003 7.913301 -6.614871 96.213480 4.359612 -4.647662 86.332669 0.000005 0.000003 -0.000002 5.619589 -6.842367 101.279944 3.622438 -4.541028 77.149097 0.000004 0.000001 0.000000 5.448569 -6.873485 99.955194 1.714553 -3.611345 50.782515 0.000004 0.000002 -0.000001 0.000001 -0.000001 -0.000001 -0.000001 -0.000002 -0.000000 -0.000001 -0.000001 -0.000002 -0.000001 -0.000002 -0.000000 -0.000001 -0.000002 -0.000000 -0.000001 -0.000002 -0.000000 -0.000001 -0.000001 -0.000001 -0.000001 -0.000002 -0.000000 -0.000001 -0.000002 -0.000000 -0.000001 -0.000002 -0.000000 -0.000001 -0.000001 -0.000001 0.000000 -0.000002 0.000000 0.000000 -0.000002 0.000000 0.000000 -0.000002 0.000000 
-4.751507 67.224556 61.904720 23.679631 13.714261 -9.002746 -0.000000 -0.000000 -0.000001 -30.354764 -4.778382 -5.479159 32.610772 -3.281363 -3.455834 -25.174641 1.675252 10.476808 -0.000000 -0.000001 0.000000 0.000000 0.000000 0.000001 -56.395806 -7.014757 -12.079801 53.262502 -7.217396 0.432990 2.157664 -6.503020 13.856837 -0.000002 0.000000 0.000000 -0.000002 0.000001 -0.000000 9.413479 1.003566 -1.429928 -0.422843 1.770880 -0.370541 -0.273308 2.351415 -0.497367 -11.032304 -0.263007 0.489893 -9.196466 2.170652 -2.889697 0.000001 0.000002 -0.000000 0.000001 0.000002 -0.000000 0.000001 0.000002 -0.000001 0.000001 0.000002 -0.000000 -0.000001 0.000000 -0.000000 0.000001 0.000002 -0.000000 -0.000001 0.000000 -0.000000 0.000001 0.000002 -0.000000 0.000001 0.000002 -0.000000 0.828890 -1.055380 -19.581369 11.301122 -4.179481 -51.475164 0.000043 -61.665502 0.000059 -22.424838 13.662197 -18.020858 74.823992 -40.508052 61.030226 25.831917 5.594309 -83.199060 -0.000000 0.000002 0.000000 5.804523 7.842051 -80.834442 5.406380 5.834187 -85.633941 0.000000 0.000002 0.000000 5.050382 8.220840 -91.320312 4.691306 5.735364 -78.548132 0.000001 0.000001 -0.000001 4.420618 8.250760 -91.840602 5.847110 5.851077 -89.961228 -0.000003 -0.000000 -0.000002 5.222591 8.401227 -99.673599 2.447227 4.761902 -54.379313 -0.000002 -0.000001 0.000003 -0.000000 0.000002 -0.000000 0.322458 6.792948 17.816151 14.532742 -11.075075 47.066021 -0.000028 67.339600 0.000037 -3.353845 -18.746255 7.238132 47.809740 35.835342 -5.333800 34.631364 -33.014481 35.094618 0.000000 -0.000001 0.000002 6.478000 -7.129533 84.356791 4.420343 -4.651125 87.082030 0.000003 0.000002 -0.000001 7.925226 -6.629808 95.875591 4.359713 -4.647666 86.333960 0.000000 -0.000001 0.000001 5.608940 -6.844461 101.146475 3.622723 -4.541097 77.152751 0.000003 0.000002 -0.000003 5.470964 -6.869704 100.094797 1.712304 -3.609504 50.746847 -0.000002 0.000002 -0.000003 -0.000002 -0.000002 0.000002 -0.000001 0.000001 -0.000000 -0.000001 -0.000001 -0.000000 -0.000001 0.000001 -0.000000 -0.000001 0.000001 -0.000000 -0.000001 0.000001 -0.000000 -0.000001 -0.000001 -0.000000 -0.000001 0.000001 -0.000000 -0.000001 0.000001 -0.000000 -0.000001 0.000001 -0.000000 -0.000001 -0.000001 -0.000000 -0.000000 -0.000000 -0.000001 -0.000000 -0.000000 -0.000001 -0.000000 -0.000000 -0.000001 
-4.713576 67.083603 63.641335 23.946339 14.245029 -9.145121 0.000002 -0.000001 0.000001 -28.565128 -6.027498 -5.250933 31.958636 -2.111776 -3.639543 -26.499121 0.905788 9.856773 -0.000000 -0.000000 0.000000 0.000000 0.000001 0.000000 -57.801883 -6.435421 -12.034713 48.756117 -6.471280 0.328290 4.688413 -7.557557 12.693289 0.000000 0.000000 -0.000000 -0.000000 0.000000 -0.000000 9.241062 0.645605 -1.443635 -0.374503 1.775979 -0.381387 -0.232036 2.353976 -0.505842 -11.041557 -0.226224 0.447396 -9.369435 2.134338 -2.939961 0.000001 0.000001 -0.000000 0.000001 0.000001 -0.000000 0.000001 0.000001 -0.000000 0.000001 0.000001 0.000000 0.000001 -0.000000 -0.000000 0.000001 0.000001 0.000000 0.000001 -0.000000 -0.000000 0.000001 0.000001 -0.000000 0.000001 0.000001 -0.000000 0.850971 -1.055167 -19.445709 11.378945 -4.063373 -51.572638 0.000017 -61.739624 0.000025 -22.565938 13.410600 -18.078261 74.823992 -40.508056 61.030233 25.822070 5.576420 -83.186868 -0.000001 -0.000002 0.000001 5.795712 7.839611 -80.912572 5.409742 5.834433 -85.666930 0.000003 0.000001 0.000000 5.057613 8.221899 -91.390868 4.690765 5.735242 -78.542729 0.000002 0.000001 -0.000001 4.426153 8.252149 -91.894417 5.849543 5.851077 -89.985051 -0.000000 0.000000 -0.000002 5.222018 8.401159 -99.668135 2.445851 4.760913 -54.362777 -0.000001 0.000001 0.000001 -0.000000 0.000002 -0.000000 0.330576 6.717008 17.586537 14.906743 -11.096826 47.280718 0.000002 67.421159 0.000011 -3.553418 -18.321009 7.173601 47.809740 35.835335 -5.333801 34.631364 -33.014481 35.094612 0.000001 -0.000003 0.000003 6.464572 -7.132972 84.233854 4.420326 -4.651129 87.081770 0.000001 -0.000001 0.000000 7.910804 -6.635674 95.783725 4.359813 -4.647682 86.335224 -0.000000 -0.000001 0.000001 5.607711 -6.844710 101.131032 3.623032 -4.541158 77.156453 0.000001 0.000001 -0.000002 5.469720 -6.869926 100.086409 1.712261 -3.609464 50.745953 -0.000001 0.000000 0.000002 -0.000000 -0.000001 0.000001 -0.000003 -0.000001 -0.000001 -0.000003 0.000002 -0.000001 -0.000003 -0.000001 -0.000001 -0.000003 -0.000001 -0.000001 -0.000003 -0.000001 -0.000001 -0.000003 0.000002 -0.000001 -0.000003 -0.000001 -0.000001 -0.000003 -0.000001 -0.000001 -0.000003 -0.000001 -0.000001 -0.000003 0.000002 -0.000001 0.000002 -0.000001 0.000001 0.000002 -0.000001 0.000001 0.000002 -0.000001 0.000001 
-4.683265 66.812241 65.457443 24.124102 14.697449 -9.102258 0.000001 -0.000000 0.000000 -26.757739 -7.087148 -5.137634 31.643754 -0.912272 -3.728872 -28.104249 0.143489 9.156038 -0.000000 0.000000 0.000000 -0.000001 0.000000 -0.000000 -59.659824 -5.018561 -12.104576 45.181251 -8.037499 -0.086806 7.718907 -6.147298 14.425173 -0.000001 0.000001 -0.000000 0.000002 0.000000 0.000001 9.053150 0.279189 -1.685178 -0.327083 1.791590 -0.387873 -0.191798 2.389390 -0.519251 -11.094804 -0.194230 0.432495 -9.618919 2.159157 -3.032442 0.000001 0.000000 -0.000001 0.000001 0.000000 -0.000001 0.000001 0.000000 0.000000 0.000001 0.000000 -0.000000 -0.000000 -0.000001 -0.000000 0.000001 0.000000 -0.000000 -0.000000 -0.000001 -0.000000 0.000001 0.000000 -0.000001 0.000001 0.000000 -0.000001 0.870922 -1.054918 -19.323111 11.546892 -4.117296 -51.490911 0.000031 -61.781424 0.000033 -22.780950 13.089982 -18.094640 74.823998 -40.508052 61.030233 25.742790 5.432241 -83.085481 -0.000003 0.000002 0.000002 5.812360 7.842462 -80.897266 5.404955 5.834073 -85.619843 0.000002 0.000001 -0.000000 5.058259 8.221990 -91.397227 4.690536 5.735206 -78.540461 0.000001 0.000000 0.000001 4.428732 8.252799 -91.919477 5.849371 5.851082 -89.983398 0.000001 0.000000 -0.000002 5.228972 8.401955 -99.733992 2.457544 4.769247 -54.503530 -0.000003 0.000000 0.000003 0.000000 0.000000 -0.000000 0.359525 6.327643 17.328658 15.284179 -11.054896 47.591177 0.000003 67.686990 0.000017 -3.676072 -17.827378 7.043222 47.809733 35.835342 -5.333800 34.631361 -33.014478 35.094618 -0.000002 -0.000001 0.000000 6.413958 -7.132877 84.101294 4.420291 -4.651122 87.081531 -0.000000 -0.000001 0.000002 7.888778 -6.638788 95.763644 4.359909 -4.647684 86.336337 0.000004 -0.000001 0.000003 5.609215 -6.844397 101.149897 3.623318 -4.541237 77.160169 0.000006 -0.000002 -0.000001 5.460075 -6.871555 100.035108 1.712825 -3.609924 50.755081 -0.000000 0.000002 0.000001 0.000001 0.000000 -0.000001 -0.000001 0.000001 -0.000001 -0.000003 -0.000002 0.000000 -0.000001 0.000001 -0.000001 -0.000001 0.000001 -0.000001 -0.000001 0.000001 -0.000001 -0.000003 -0.000002 0.000000 -0.000001 0.000001 -0.000001 -0.000001 0.000001 -0.000001 -0.000001 0.000001 -0.000001 -0.000003 -0.000002 0.000000 0.000001 -0.000000 0.000000 0.000001 -0.000000 0.000000 0.000001 -0.000000 0.000000 
